# xmcd CD database file
#
# Track frame offsets:
#	180
#	12688
#	27038
#	39789
#	52778
#	64607
#	76815
#	91010
#	102514
#	114282
#	127678
#	143536
#	157614
#	171128
#	185466
#	197969
#	221133
#	233953
#
# Disc length: 3281 seconds
#
# Revision: 0
# Processed by: cddbd v1.4PL0 Copyright (c) Steve Scherf et al.
# Submitted via: CDex 1.51
#
DISCID=d60ccf12
DTITLE=Compil - Harmonica blues, Mississippi, Memphis, Chicago, 1927-1941 [CD2)
DYEAR=1995
DGENRE=Blues, jazz, boogie
TTITLE0=Harper and Smith - Insurance policy blues
TTITLE1=George Clarke - Prisoner's blues
TTITLE2=Jazz Gillum - Just like Jesse James
TTITLE3=Jazz Gillum - Sweet sweet woman
TTITLE4=Big Walter Horton and Little Buddy Doyle - Grief will kill you
TTITLE5=Big Walter Horton and Little Buddy Doyle - Lost baby blues
TTITLE6=John Lee "Sonny boy" Williamson - Sugar mama blues n°2
TTITLE7=Rhytm Willie and Peetie Wheatstraw - You can't stop me from drinking
TTITLE8=Sonny Terry - Harmonica and whashboard breakdown
TTITLE9=Rhytm Willie - Bedroom stomp
TTITLE10=John Lee "Sonny boy" Williamson and Yank Rachell - Hobo blues
TTITLE11=John Lee "Sonny boy" Williamson - Mattie Mae blues
TTITLE12=Frank Edwards - Three women blues
TTITLE13=Robert Nighthawk and Big Joe Mc Coy - What wil I do ?
TTITLE14=Robert Nighthawk and Wlater Vincson - She's leaving me
TTITLE15=Leroy Williams - Uncle Sam done called
TTITLE16=John Lee "Sonny boy" Williamson and Yank Rachell - Lou Della blues
TTITLE17=John Lee "Sonny boy" Williamson - She don't love me that way
EXTD=YEAR: 1995
EXTT0=
EXTT1=
EXTT2=
EXTT3=
EXTT4=
EXTT5=
EXTT6=
EXTT7=
EXTT8=
EXTT9=
EXTT10=
EXTT11=
EXTT12=
EXTT13=
EXTT14=
EXTT15=
EXTT16=
EXTT17=
PLAYORDER=
